Genre:Action | Adventure | Sci-Fi
 Language:English
 IMDb:http://www.imdb.com/title/tt0848228/
 Source:The Avengers 2012 HDCAM/INSPiRAL Thanks!
 Encoder:Tony
 
Format : AVI
 Format/Info : Audio Video Interleave
 File size : 1.36 GiB
 Duration : 2h 15mn
 Overall bit rate : 1 431 Kbps
 
Video
 ID : 0
 Format : MPEG-4 Visual
 Format profile : Advanced Simple@L5
 Format settings, BVOP : 1
 Format settings, QPel : No
 Format settings, GMC : No warppoints
 Format settings, Matrix : Default (H.263)
 Codec ID : XVID
 Codec ID/Hint : XviD
 Duration : 2h 15mn
 Bit rate : 1 229 Kbps
 Width : 640 pixels
 Height : 280 pixels
 Display aspect ratio : 2.25:1
 Frame rate : 29.970 fps
 Color space : YUV
 Chroma subsampling : 4:2:0
 Bit depth : 8 bits
 Scan type : Progressive
 Compression mode : Lossy
 Bits/(Pixel*Frame) : 0.229
 Stream size : 1.17 GiB (86%)
 Writing library : XviD 1.2.1 (UTC 2008-12-04)
 
Audio
 ID : 1
 Format : AC-3
 Format/Info : Audio Coding 3
 Mode extension : CM (complete main)
 Codec ID : 2000
 Duration : 2h 15mn
 Bit rate mode : Constant
 Bit rate : 192 Kbps
 Channel(s) : 2 channels
 Channel positions : Front: L R
 Sampling rate : 48.0 KHz
 Bit depth : 16 bits
 Compression mode : Lossy
 Stream size : 186 MiB (13%)
 Alignment : Aligned on interleaves
 Interleave, duration : 34 ms (1.00 video frame)
 Interleave, preload duration : 512 ms
 

Plot:
 Nick Fury of S.H.I.E.L.D. brings together a team of super humans to form The Avengers to help save the Earth from Loki and his army.
 
